<svg width="40" height="41" viewBox="0 0 40 41" fill="none" xmlns="http://www.w3.org/2000/svg">
<path d="M10.9 9.25338C11 10.7367 11.25 12.1867 11.65 13.57L9.65 15.57C8.96667 13.57 8.53333 11.4534 8.38333 9.25338H10.9ZM27.3333 29.2867C28.75 29.6867 30.2 29.9367 31.6667 30.0367V32.52C29.4667 32.37 27.35 31.9367 25.3333 31.27L27.3333 29.2867ZM12.5 5.92004H6.66667C5.75 5.92004 5 6.67004 5 7.58671C5 23.2367 17.6833 35.92 33.3333 35.92C34.25 35.92 35 35.17 35 34.2534V28.4367C35 27.52 34.25 26.77 33.3333 26.77C31.2667 26.77 29.25 26.4367 27.3833 25.82C27.2167 25.7534 27.0333 25.7367 26.8667 25.7367C26.4333 25.7367 26.0167 25.9034 25.6833 26.22L22.0167 29.8867C17.3 27.47 13.4333 23.62 11.0333 18.9034L14.7 15.2367C15.1667 14.77 15.3 14.12 15.1167 13.5367C14.5 11.67 14.1667 9.67004 14.1667 7.58671C14.1667 6.67004 13.4167 5.92004 12.5 5.92004Z" fill="#003294"/>
</svg>
