<svg width="60" height="60" viewBox="0 0 60 60" fill="none" xmlns="http://www.w3.org/2000/svg">
<path d="M30.0272 -0.000181733C38.3346 -0.000851758 46.6427 -0.00353185 54.9501 -0.000181733C58.3052 0.00115832 59.9954 1.69833 59.9961 5.07793C60.0008 21.594 60.0021 38.1101 59.9974 54.6256C59.9961 58.3864 58.3801 59.9965 54.6488 59.9965C38.2242 59.9971 21.7995 59.9965 5.37482 59.9965C5.10839 59.9965 4.8413 59.9991 4.57487 59.9938C1.85974 59.9395 0.0141721 58.164 0.0114944 55.4705C-0.00457143 38.4585 -0.00390202 21.4466 0.0141721 4.43471C0.0168497 1.77538 1.89656 0.00852858 4.64717 0.00517846C13.1072 -0.00621195 21.5672 0.00115832 30.0272 -0.000181733ZM31.8862 25.9606C31.8862 25.1371 31.8594 24.3123 31.8942 23.4902C31.9243 22.7914 31.7342 22.4496 30.9416 22.4657C28.7326 22.5086 26.5215 22.5053 24.3125 22.4657C23.5373 22.4523 23.3411 22.7746 23.3425 23.4855C23.3579 32.3714 23.3599 41.2579 23.3438 50.1438C23.3425 50.8908 23.6056 51.1448 24.3433 51.1334C26.553 51.1006 28.7647 51.0751 30.9724 51.1434C31.9685 51.1743 32.2912 50.8828 32.2791 49.863C32.2289 45.5923 32.2269 41.3202 32.2798 37.0495C32.2965 35.7248 32.4036 34.3694 32.7163 33.0876C33.2926 30.7211 35.0806 29.5512 37.692 29.6068C40.0845 29.6578 41.3999 30.7586 41.92 33.2725C42.1114 34.1985 42.1811 35.1634 42.1871 36.1114C42.2185 40.7259 42.2286 45.341 42.1998 49.9555C42.1944 50.8366 42.4368 51.1689 43.3632 51.1421C45.4953 51.0805 47.6321 51.0731 49.7635 51.1434C50.7904 51.1776 51.1492 50.9009 51.1371 49.8161C51.0815 44.8968 51.1405 39.9768 51.0996 35.0568C51.0782 32.5007 50.9396 29.9472 50.0245 27.5083C49.0673 24.9582 47.3824 23.1244 44.7295 22.3927C39.8287 21.0406 35.4367 21.6403 31.8869 25.9599L31.8862 25.9606ZM8.88923 36.6595C8.88923 41.1212 8.90195 45.5829 8.87651 50.0446C8.87249 50.7897 9.01909 51.1575 9.87326 51.1394C12.1961 51.0905 14.521 51.1046 16.8452 51.1307C17.526 51.1381 17.7891 50.9109 17.7884 50.2088C17.773 41.2854 17.7716 32.362 17.7904 23.4386C17.7917 22.6754 17.5052 22.4557 16.7802 22.4664C14.533 22.4992 12.2838 22.5126 10.0373 22.4624C9.15431 22.4423 8.85576 22.6922 8.8658 23.6182C8.91333 27.9646 8.88722 32.3124 8.88923 36.6595ZM13.2953 8.26457C10.4945 8.27797 8.22249 10.5587 8.20643 13.3735C8.18969 16.2298 10.4958 18.5635 13.3368 18.5669C16.1784 18.5695 18.5073 16.2318 18.4953 13.3896C18.4826 10.538 16.1624 8.25117 13.2953 8.26524V8.26457Z" fill="#00B2FF"/>
</svg>
